<svg xmlns="http://www.w3.org/2000/svg" viewBox="0 0 1600 332"><path fill="#E9399B" d="M0 0h533.3v332H0V0z"/><path fill="#fff" d="M95.2 85.1v2.8c4.7 0 7.9.4 9.6 1.3s2.9 2 3.5 3.5c.7 1.4 1.1 4.9 1.1 10.4v66.4c0 5.5-.4 9-1.1 10.4s-1.8 2.6-3.5 3.5-4.9 1.3-9.6 1.3v2.8h52c14.5 0 25.5-3 33.1-9.1 6.2-5 9.3-11.4 9.3-19.1 0-7.3-2.8-13.2-8.5-17.8-3.9-3.2-10.7-6-20.5-8.2 9-2.3 15.3-5.3 18.9-9.1 3.6-3.9 5.4-8.3 5.4-13.2 0-4.7-1.4-9.1-4.2-13.2-2.8-4.2-6.7-7.3-11.6-9.4-4.9-2.1-13.2-3.2-24.9-3.2l-49-.1zm38.1 5.7c7.3-.1 12.7.7 16 2.2s5.9 3.7 7.6 6.6c1.8 2.9 2.7 6.6 2.7 11.1s-.9 8.3-2.7 11.2c-1.8 2.9-4.4 5.2-7.9 6.8-3.4 1.6-8.6 2.4-15.8 2.4l.1-40.3zm86.9 30.9l-23 51.4c-2.2 4.9-4 8.2-5.5 9.7-1.5 1.6-3.4 2.5-5.7 2.9v1.8h21.4v-1.8c-3.4-.3-5.5-.6-6.3-1.1-1.5-.9-2.2-2.2-2.2-4 0-1.4.4-3.1 1.3-5.2l2.7-6.3h22.8l3.4 8c.9 2.1 1.4 3.3 1.4 3.6.2.6.3 1.2.3 1.8 0 1-.3 1.7-1 2.2-1 .7-2.8 1-5.3 1h-1.3v1.8h31.2v-1.8c-2-.2-3.5-.7-4.6-1.7-1.4-1.3-3.2-4.5-5.5-9.5l-23.2-52.8h-.9zm36.2 1.3v1.8h2.1c1.8 0 3.2.3 4.3 1 1.1.6 1.8 1.3 2.1 2.1.3.8.5 2.9.5 6.2v42.4c0 3.2-.2 5.2-.5 6-.4 1.1-1.1 1.8-1.9 2.3-1.1.7-2.6 1-4.5 1h-2.1v1.8h32.5v-1.8c-2.4 0-4.1-.3-5.2-.9-1.1-.6-1.8-1.3-2.2-2.1-.4-.8-.6-2.9-.6-6.3v-17.6l2.4-2 14.8 18.6c2.9 3.7 4.4 6.2 4.4 7.5 0 .7-.3 1.3-1 1.8-.6.5-2 .8-4.1 1v1.8H331v-1.8c-1.9 0-3.6-.5-5.3-1.5-2.3-1.4-5.1-4.1-8.3-8.1l-22.7-28.4 18.9-15.1c4.6-3.7 7.6-5.9 8.8-6.6 1.3-.7 3.1-1.1 5.3-1.2V123h-25.1v1.8c2.8.1 4.5.3 5.2.7 1.4.7 2 1.6 2 2.9 0 1.6-1.7 3.8-5 6.5L281 154.1V134c0-3.3.2-5.3.6-6.1.5-1 1.1-1.8 1.9-2.2 1.1-.6 2.8-1 5-1V123h-32.1zm76.7 0v1.8h2.1c1.8 0 3.2.3 4.3 1 1.1.6 1.8 1.3 2.1 2.1.3.8.5 2.9.5 6.2v42.4c0 3.2-.2 5.2-.5 6-.4 1.1-1.1 1.8-1.9 2.3-1.1.7-2.6 1-4.5 1h-2.1v1.8h33.7v-1.8h-2.1c-1.8 0-3.2-.3-4.3-.9-1-.6-1.8-1.4-2.1-2.2-.3-.8-.5-2.9-.5-6.2v-42.4c0-3.2.2-5.2.5-6 .5-1.1 1.1-1.8 1.9-2.3 1.1-.7 2.6-1 4.5-1h2.1V123h-33.7zm35.7 0v1.8c2.9 0 5 .3 6 .8 1.1.5 1.8 1.3 2.2 2.2.4.9.7 3.1.7 6.6v41.8c0 3.5-.2 5.7-.7 6.6-.4.9-1.2 1.6-2.2 2.2-1 .5-3.1.8-6 .8v1.8h33v-1.8c-2.9 0-5-.3-6-.8-1.1-.5-1.8-1.3-2.3-2.1-.4-.9-.6-3.1-.6-6.6v-18.1h4.2l20.8 29.4h20.3v-1.8c-1.7-.1-3.2-.6-4.5-1.6-.9-.7-2.3-2.5-4.3-5.3L413.8 157c3.9-1 7-2.5 9.2-4.4 3.4-3.1 5.1-7 5.1-11.8 0-3.9-1.1-7.3-3.4-10.2-2.3-2.9-5.2-4.9-8.8-6-3.6-1.1-9.3-1.6-17.1-1.6h-30zm24 3.5h5.1c5.1 0 8.8 1.2 11.1 3.5 2.3 2.3 3.5 6 3.5 10.9 0 3.4-.6 6.1-1.9 8.3-1.2 2.1-2.9 3.5-5.1 4.4-2.2.8-5.5 1.2-9.9 1.2h-2.7v-28.3h-.1zM133.3 137c7.7-.1 13.5.7 17.4 2.2s6.9 4.2 9.1 8c2.2 3.8 3.3 8.1 3.3 12.8 0 4.2-.9 8-2.7 11.4s-4.4 6-7.9 7.8c-3.4 1.8-7.1 2.6-11.1 2.6-2.7 0-4.8-.7-6.2-2-1.4-1.4-2-3.5-2-6.2l.1-3.8V137zm81.2 6.4l9.6 22.2h-19.5l9.9-22.2zM95.4 199v48h340.5v-48H95.4zm176.3 4.8h9.7v8.7c0 .6 0 1.4-.1 2.2 0 .9-.1 1.7-.2 2.5.4-.3.8-.6 1.3-.8s1.1-.4 1.7-.6c.6-.2 1.2-.3 1.8-.4.6-.1 1.2-.2 1.8-.2 1.8 0 3.3.2 4.5.7s2.3 1.2 3.1 2.2c.8 1 1.4 2.2 1.8 3.7s.6 3.2.6 5.3c0 1.9-.2 3.7-.7 5.3s-1.2 3-2.1 4.1c-1 1.1-2.2 2-3.6 2.7-1.4.6-3.1 1-5.1 1-1.6 0-3.5-.2-5.5-.5-2.1-.3-4.2-.7-6.4-1.2V206l-2.4-.6v-1.6h-.2zm36.3 0c.5 0 1 .1 1.5.3s.9.5 1.2.8c.4.3.6.7.8 1.2.2.5.3 1 .3 1.5s-.1 1-.3 1.5c-.2.5-.5.9-.8 1.2-.3.4-.7.6-1.2.8s-1 .3-1.5.3-1-.1-1.5-.3-.9-.5-1.2-.8-.6-.8-.8-1.2c-.2-.5-.3-1-.3-1.5s.1-1 .3-1.5c.2-.5.5-.9.8-1.2.4-.4.8-.6 1.2-.8s.9-.3 1.5-.3zm8.9 0h9.7v33.6l2.6.6v1.7h-12.5V238l2.6-.6v-31.3l-2.4-.6v-1.7zm21.3 0c.5 0 1 .1 1.5.3s.9.5 1.2.8c.4.3.6.7.8 1.2.2.5.3 1 .3 1.5s-.1 1-.3 1.5c-.2.5-.5.9-.8 1.2-.3.4-.7.6-1.2.8s-1 .3-1.5.3-1-.1-1.5-.3-.9-.5-1.2-.8-.6-.8-.8-1.2c-.2-.5-.3-1-.3-1.5s.1-1 .3-1.5c.2-.5.5-.9.8-1.2.4-.4.8-.6 1.2-.8.5-.2 1-.3 1.5-.3zm-200.8 2.1H154v1.8l-4.3.7v28.8l4.3.7v1.9h-16.6v-1.9l4.3-.7v-28.8l-4.3-.7v-1.8zm38.2 9.5c1.3 0 2.5.2 3.4.7 1 .5 1.7 1.3 2.2 2.3.5-.3 1.2-.7 1.8-1 .7-.4 1.4-.7 2.2-1s1.6-.6 2.4-.8c.8-.2 1.6-.3 2.3-.3 1 0 1.8.1 2.6.4.8.3 1.5.7 2 1.2.6.6 1 1.3 1.3 2.2s.5 2 .5 3.2v15.1l2.4.6v1.7H187V238l2.1-.6v-14.1c0-1.4-.3-2.5-.8-3.3s-1.4-1.2-2.5-1.2c-.6 0-1.3.1-2 .3s-1.4.4-2 .8c.1.4.1.7.2 1.2.1.4.1.8.1 1.3v15.1l2.4.6v1.7h-11.8v-1.7l2.1-.6v-14.1c0-1.4-.3-2.5-.8-3.3s-1.4-1.2-2.5-1.2c-.6 0-1.3.1-1.9.3-.6.2-1.3.4-1.9.7v17.6l2.2.6v1.7H158v-1.7l2.3-.6v-19.2l-2.3-.6V216h9.2l.4 2.1c.5-.3 1.1-.6 1.7-.9.6-.3 1.3-.6 2-.9.7-.3 1.4-.5 2.1-.7.7-.2 1.4-.2 2.2-.2zm43.9 0c1.3 0 2.5.2 3.4.7 1 .5 1.7 1.3 2.2 2.3.5-.3 1.2-.7 1.8-1 .7-.4 1.4-.7 2.2-1s1.6-.6 2.4-.8c.8-.2 1.6-.3 2.3-.3 1 0 1.8.1 2.6.4.8.3 1.5.7 2 1.2.6.6 1 1.3 1.3 2.2s.5 2 .5 3.2v15.1l2.4.6v1.7h-11.8V238l2.1-.6v-14.1c0-1.4-.3-2.5-.8-3.3s-1.4-1.2-2.5-1.2c-.6 0-1.3.1-2 .3s-1.4.4-2 .8c.1.4.1.7.2 1.2.1.4.1.8.1 1.3v15.1l2.4.6v1.7h-11.8v-1.7l2.1-.6v-14.1c0-1.4-.3-2.5-.8-3.3s-1.4-1.2-2.5-1.2c-.6 0-1.3.1-1.9.3-.6.2-1.3.4-1.9.7v17.6l2.2.6v1.7h-11.8v-1.7l2.3-.6v-19.2l-2.3-.6V216h9.2l.4 2.1c.5-.3 1.1-.6 1.7-.9.6-.3 1.3-.6 2-.9.7-.3 1.4-.5 2.1-.7.7-.2 1.4-.2 2.2-.2zm37.9 0c3.8 0 6.5 1.1 8.3 3.2 1.8 2.1 2.7 5.2 2.7 9.2 0 2-.2 3.8-.6 5.4-.4 1.5-1.1 2.9-1.9 3.9-.9 1.1-2 1.9-3.5 2.4-1.4.5-3.1.8-5.1.8-1.9 0-3.5-.3-4.8-.8-1.4-.5-2.5-1.3-3.4-2.4-.9-1.1-1.5-2.4-1.9-3.9-.4-1.6-.6-3.4-.6-5.4s.2-3.8.6-5.3c.4-1.5 1.1-2.8 2-3.9.9-1 2-1.8 3.4-2.4 1.2-.6 2.8-.8 4.8-.8zm131.3 0c1 0 1.8.1 2.7.4.8.3 1.5.7 2.1 1.2.6.6 1 1.3 1.4 2.2.3.9.5 2 .5 3.2v15.1l2.4.6v1.7H386v-1.7l2.1-.6v-14.1c0-1.4-.3-2.5-.9-3.3s-1.4-1.2-2.5-1.2c-1.3 0-2.6.3-3.8.9v17.8l2.2.6v1.7h-11.8v-1.7l2.3-.6v-19.2l-2.3-.6V216h9.2l.4 2.1c.5-.3 1.1-.6 1.7-.9.6-.3 1.3-.6 2-.9.7-.3 1.4-.5 2.1-.7.5-.2 1.3-.2 2-.2zm-30.2 0c1.4 0 2.7.2 3.8.5 1.1.3 2.1.9 2.9 1.7s1.4 1.9 1.8 3.3c.4 1.3.7 3 .7 5.1v2.1h-12.4v.4c0 1.1 0 2.2.1 3.3.1 1 .4 1.9.8 2.8.4.8 1.1 1.4 1.9 1.9.9.5 2 .7 3.5.7 1 0 2-.1 2.9-.2.9-.2 1.8-.3 2.7-.5v1.9c-.4.2-.9.5-1.5.7s-1.2.4-1.9.6c-.7.2-1.4.3-2.2.4-.8.1-1.5.2-2.3.2-2 0-3.8-.3-5.2-.8-1.4-.5-2.6-1.3-3.6-2.4-.9-1.1-1.6-2.4-2-3.9s-.6-3.3-.6-5.4c0-4.1.9-7.2 2.7-9.3 1.6-2.1 4.3-3.1 7.9-3.1zm-56.6.6h9.7v21.5l2.6.6v1.7h-12.5v-1.7l2.6-.6v-19.2l-2.4-.6V216zm30.2 0h9.7v21.5l2.6.6v1.7H332v-1.7l2.6-.6v-19.2l-2.4-.6V216h-.1zm-218.3 1.6c2.5 0 4.5 2 4.5 4.5s-2 4.5-4.5 4.5-4.5-2-4.5-4.5c-.1-2.5 2-4.5 4.5-4.5zm305.9 0c2.5 0 4.5 2 4.5 4.5s-2 4.5-4.5 4.5-4.5-2-4.5-4.5c-.1-2.5 2-4.5 4.5-4.5zm-162.5.3c-.7 0-1.3.2-1.8.6-.5.4-.8 1-1.1 1.8-.2.8-.4 1.9-.5 3.1-.1 1.2-.1 2.7-.1 4.3s0 3.1.1 4.3.2 2.3.5 3.1.6 1.5 1.1 1.9 1.1.6 1.8.6c.8 0 1.4-.2 1.8-.6s.8-1.1 1.1-1.9c.3-.8.5-1.9.6-3.1.1-1.2.2-2.7.2-4.3s-.1-3.1-.2-4.3-.3-2.3-.6-3.1c-.3-.8-.6-1.4-1.1-1.8-.4-.4-1-.6-1.8-.6zm101 .1c-.6 0-1.1.2-1.5.5-.4.4-.7.9-.9 1.5-.2.6-.4 1.4-.5 2.3-.1.9-.1 2-.1 3.1h5.5c0-1.1 0-2.2-.1-3.1 0-.9-.1-1.7-.3-2.3-.2-.6-.4-1.1-.7-1.5-.4-.4-.8-.5-1.4-.5zm-72.8.2c-.6 0-1.3.1-2.1.2s-1.4.3-1.9.6v18.2c.5.1 1.2.2 1.9.3.7.1 1.4.1 2.1.1.9 0 1.7-.2 2.3-.7s1.1-1.1 1.5-2 .7-2 .9-3.3c.2-1.3.3-2.8.3-4.4 0-1.7-.1-3.1-.3-4.3-.2-1.2-.5-2.1-1-2.8-.4-.7-.9-1.2-1.6-1.5s-1.3-.4-2.1-.4z"/><path fill="#3E4145" d="M1066.7 0H1600v332h-533.3V0z"/><path fill="#fff" d="M1161.9 85.1v2.8c4.7 0 7.9.4 9.6 1.3s2.9 2 3.5 3.5c.7 1.4 1.1 4.9 1.1 10.4v66.4c0 5.5-.4 9-1.1 10.4s-1.8 2.6-3.5 3.5-4.9 1.3-9.6 1.3v2.8h52c14.5 0 25.5-3 33.1-9.1 6.2-5 9.3-11.4 9.3-19.1 0-7.3-2.8-13.2-8.5-17.8-3.9-3.2-10.7-6-20.5-8.2 9-2.3 15.3-5.3 18.9-9.1 3.6-3.9 5.4-8.3 5.4-13.2 0-4.7-1.4-9.1-4.2-13.2-2.8-4.2-6.7-7.3-11.6-9.4s-13.2-3.2-24.9-3.2l-49-.1zm38 5.7c7.3-.1 12.7.7 16 2.2s5.9 3.7 7.6 6.6c1.8 2.9 2.7 6.6 2.7 11.1s-.9 8.3-2.7 11.2-4.4 5.2-7.9 6.8c-3.4 1.6-8.6 2.4-15.8 2.4V90.8h.1zm87 30.9l-23 51.4c-2.2 4.9-4 8.2-5.5 9.7-1.5 1.6-3.4 2.5-5.7 2.9v1.8h21.4v-1.8c-3.4-.3-5.5-.6-6.3-1.1-1.5-.9-2.2-2.2-2.2-4 0-1.4.4-3.1 1.3-5.2l2.7-6.3h22.8l3.4 8c.9 2.1 1.4 3.3 1.4 3.6.2.6.3 1.2.3 1.8 0 1-.3 1.7-1 2.2-1 .7-2.8 1-5.3 1h-1.3v1.8h31.2v-1.8c-2-.2-3.5-.7-4.6-1.7-1.4-1.3-3.2-4.5-5.5-9.5l-23.2-52.8h-.9zm36.2 1.3v1.8h2.1c1.8 0 3.2.3 4.3 1 1.1.6 1.8 1.3 2.1 2.1.3.8.5 2.9.5 6.2v42.4c0 3.2-.2 5.2-.5 6-.4 1.1-1.1 1.8-1.9 2.3-1.1.7-2.6 1-4.5 1h-2.1v1.8h32.5v-1.8c-2.4 0-4.1-.3-5.2-.9-1.1-.6-1.8-1.3-2.2-2.1-.4-.8-.6-2.9-.6-6.3v-17.6l2.4-2 14.8 18.6c2.9 3.7 4.4 6.2 4.4 7.5 0 .7-.3 1.3-1 1.8-.6.5-2 .8-4.1 1v1.8h33.5v-1.8c-1.9 0-3.6-.5-5.3-1.5-2.3-1.4-5.1-4.1-8.3-8.1l-22.7-28.4 18.9-15.1c4.6-3.7 7.6-5.9 8.8-6.6 1.3-.7 3.1-1.1 5.3-1.2V123h-25.1v1.8c2.8.1 4.5.3 5.2.7 1.4.7 2 1.6 2 2.9 0 1.6-1.7 3.8-5 6.5l-23.9 19.3v-20.1c0-3.3.2-5.3.6-6.1.5-1 1.1-1.8 1.9-2.2 1.1-.6 2.8-1 5-1V123h-31.9zm76.6 0v1.8h2.1c1.8 0 3.2.3 4.3 1 1.1.6 1.8 1.3 2.1 2.1.3.8.5 2.9.5 6.2v42.4c0 3.2-.2 5.2-.5 6-.4 1.1-1.1 1.8-1.9 2.3-1.1.7-2.6 1-4.5 1h-2.1v1.8h33.7v-1.8h-2.1c-1.8 0-3.2-.3-4.3-.9-1-.6-1.8-1.4-2.1-2.2-.3-.8-.5-2.9-.5-6.2v-42.4c0-3.2.2-5.2.5-6 .5-1.1 1.1-1.8 1.9-2.3 1.1-.7 2.6-1 4.5-1h2.1V123h-33.7zm35.7 0v1.8c2.9 0 5 .3 6 .8 1.1.5 1.8 1.3 2.2 2.2.4.9.7 3.1.7 6.6v41.8c0 3.5-.2 5.7-.7 6.6-.4.9-1.2 1.6-2.2 2.2-1 .5-3.1.8-6 .8v1.8h33v-1.8c-2.9 0-5-.3-6-.8-1.1-.5-1.8-1.3-2.3-2.1-.4-.9-.6-3.1-.6-6.6v-18.1h4.2l20.8 29.4h20.3v-1.8c-1.7-.1-3.2-.6-4.5-1.6-.9-.7-2.3-2.5-4.3-5.3l-15.5-21.8c3.9-1 7-2.5 9.2-4.4 3.4-3.1 5.1-7 5.1-11.8 0-3.9-1.1-7.3-3.4-10.2-2.3-2.9-5.2-4.9-8.8-6-3.6-1.1-9.3-1.6-17.1-1.6l-30.1-.1zm24.1 3.5h5.1c5.1 0 8.8 1.2 11.1 3.5 2.3 2.3 3.5 6 3.5 10.9 0 3.4-.6 6.1-1.9 8.3-1.2 2.1-2.9 3.5-5.1 4.4-2.2.8-5.5 1.2-9.9 1.2h-2.7l-.1-28.3zM1199.9 137c7.7-.1 13.5.7 17.4 2.2s6.9 4.2 9.1 8 3.3 8.1 3.3 12.8c0 4.2-.9 8-2.7 11.4-1.8 3.4-4.4 6-7.9 7.8-3.4 1.8-7.1 2.6-11.1 2.6-2.7 0-4.8-.7-6.2-2-1.4-1.4-2-3.5-2-6.2l.1-3.8V137zm81.2 6.4l9.6 22.2h-19.5l9.9-22.2zm-119 55.6v48h340.5v-48h-340.5zm176.3 4.8h9.7v8.7c0 .6 0 1.4-.1 2.2 0 .9-.1 1.7-.2 2.5.4-.3.8-.6 1.3-.8s1.1-.4 1.7-.6c.6-.2 1.2-.3 1.8-.4.6-.1 1.2-.2 1.8-.2 1.8 0 3.3.2 4.5.7s2.3 1.2 3.1 2.2c.8 1 1.4 2.2 1.8 3.7s.6 3.2.6 5.3c0 1.9-.2 3.7-.7 5.3s-1.2 3-2.1 4.1c-1 1.1-2.2 2-3.6 2.7-1.4.6-3.1 1-5.1 1-1.6 0-3.5-.2-5.5-.5-2.1-.3-4.2-.7-6.4-1.2V206l-2.4-.6v-1.6h-.2zm36.2 0c.5 0 1 .1 1.5.3s.9.5 1.2.8c.4.3.6.7.8 1.2.2.5.3 1 .3 1.5s-.1 1-.3 1.5c-.2.5-.5.9-.8 1.2-.3.4-.7.6-1.2.8s-1 .3-1.5.3-1-.1-1.5-.3-.9-.5-1.2-.8-.6-.8-.8-1.2c-.2-.5-.3-1-.3-1.5s.1-1 .3-1.5c.2-.5.5-.9.8-1.2.4-.4.8-.6 1.2-.8.5-.2 1-.3 1.5-.3zm9 0h9.7v33.6l2.6.6v1.7h-12.5V238l2.6-.6v-31.3l-2.4-.6v-1.7zm21.3 0c.5 0 1 .1 1.5.3s.9.5 1.2.8c.4.3.6.7.8 1.2.2.5.3 1 .3 1.5s-.1 1-.3 1.5c-.2.5-.5.9-.8 1.2-.3.4-.7.6-1.2.8s-1 .3-1.5.3-1-.1-1.5-.3-.9-.5-1.2-.8-.6-.8-.8-1.2c-.2-.5-.3-1-.3-1.5s.1-1 .3-1.5c.2-.5.5-.9.8-1.2.4-.4.8-.6 1.2-.8.4-.2.9-.3 1.5-.3zm-200.8 2.1h16.6v1.8l-4.3.7v28.8l4.3.7v1.9h-16.6v-1.9l4.3-.7v-28.8l-4.3-.7v-1.8zm38.2 9.5c1.3 0 2.5.2 3.4.7 1 .5 1.7 1.3 2.2 2.3.5-.3 1.2-.7 1.8-1 .7-.4 1.4-.7 2.2-1 .8-.3 1.6-.6 2.4-.8s1.6-.3 2.3-.3c1 0 1.8.1 2.6.4s1.5.7 2 1.2c.6.6 1 1.3 1.3 2.2s.5 2 .5 3.2v15.1l2.4.6v1.7h-11.8V238l2.1-.6v-14.1c0-1.4-.3-2.5-.8-3.3s-1.4-1.2-2.5-1.2c-.6 0-1.3.1-2 .3s-1.4.4-2 .8c.1.4.1.7.2 1.2.1.4.1.8.1 1.3v15.1l2.4.6v1.7h-11.8v-1.7l2.1-.6v-14.1c0-1.4-.3-2.5-.8-3.3s-1.4-1.2-2.5-1.2c-.6 0-1.3.1-1.9.3s-1.3.4-1.9.7v17.6l2.2.6v1.7h-11.8v-1.7l2.3-.6v-19.2l-2.3-.6V216h9.2l.4 2.1c.5-.3 1.1-.6 1.7-.9.6-.3 1.3-.6 2-.9.7-.3 1.4-.5 2.1-.7.6-.2 1.4-.2 2.2-.2zm43.9 0c1.3 0 2.5.2 3.4.7 1 .5 1.7 1.3 2.2 2.3.5-.3 1.2-.7 1.8-1 .7-.4 1.4-.7 2.2-1 .8-.3 1.6-.6 2.4-.8s1.6-.3 2.3-.3c1 0 1.8.1 2.6.4s1.5.7 2 1.2c.6.6 1 1.3 1.3 2.2s.5 2 .5 3.2v15.1l2.4.6v1.7h-11.8V238l2.1-.6v-14.1c0-1.4-.3-2.5-.8-3.3s-1.4-1.2-2.5-1.2c-.6 0-1.3.1-2 .3s-1.4.4-2 .8c.1.4.1.7.2 1.2.1.4.1.8.1 1.3v15.1l2.4.6v1.7h-11.8v-1.7l2.1-.6v-14.1c0-1.4-.3-2.5-.8-3.3s-1.4-1.2-2.5-1.2c-.6 0-1.3.1-1.9.3s-1.3.4-1.9.7v17.6l2.2.6v1.7h-11.8v-1.7l2.3-.6v-19.2l-2.3-.6V216h9.2l.4 2.1c.5-.3 1.1-.6 1.7-.9.6-.3 1.3-.6 2-.9.7-.3 1.4-.5 2.1-.7s1.4-.2 2.2-.2zm37.8 0c3.8 0 6.5 1.1 8.3 3.2 1.8 2.1 2.7 5.2 2.7 9.2 0 2-.2 3.8-.6 5.4-.4 1.5-1.1 2.9-1.9 3.9-.9 1.1-2 1.9-3.5 2.4-1.4.5-3.1.8-5.1.8-1.9 0-3.5-.3-4.8-.8-1.4-.5-2.5-1.3-3.4-2.4-.9-1.1-1.5-2.4-1.9-3.9-.4-1.6-.6-3.4-.6-5.4s.2-3.8.6-5.3 1.1-2.8 2-3.9c.9-1 2-1.8 3.4-2.4 1.2-.6 2.9-.8 4.8-.8zm131.4 0c1 0 1.8.1 2.7.4s1.5.7 2.1 1.2c.6.6 1 1.3 1.4 2.2.3.9.5 2 .5 3.2v15.1l2.4.6v1.7h-11.8v-1.7l2.1-.6v-14.1c0-1.4-.3-2.5-.9-3.3s-1.4-1.2-2.5-1.2c-1.3 0-2.6.3-3.8.9v17.8l2.2.6v1.7H1438v-1.7l2.3-.6v-19.2l-2.3-.6V216h9.2l.4 2.1c.5-.3 1.1-.6 1.7-.9.6-.3 1.3-.6 2-.9.7-.3 1.4-.5 2.1-.7.5-.2 1.2-.2 2-.2zm-30.3 0c1.4 0 2.7.2 3.8.5 1.1.3 2.1.9 2.9 1.7s1.4 1.9 1.8 3.3c.4 1.3.7 3 .7 5.1v2.1h-12.4v.4c0 1.1 0 2.2.1 3.3.1 1 .4 1.9.8 2.8.4.8 1.1 1.4 1.9 1.9.9.5 2 .7 3.5.7 1 0 2-.1 2.9-.2.9-.2 1.8-.3 2.7-.5v1.9c-.4.2-.9.5-1.5.7s-1.2.4-1.9.6c-.7.2-1.4.3-2.2.4-.8.1-1.5.2-2.3.2-2 0-3.8-.3-5.2-.8-1.4-.5-2.6-1.3-3.6-2.4-.9-1.1-1.6-2.4-2-3.9s-.6-3.3-.6-5.4c0-4.1.9-7.2 2.7-9.3 1.7-2.1 4.3-3.1 7.9-3.1zm-56.5.6h9.7v21.5l2.6.6v1.7h-12.5v-1.7l2.6-.6v-19.2l-2.4-.6V216zm30.2 0h9.7v21.5l2.6.6v1.7h-12.5v-1.7l2.6-.6v-19.2l-2.4-.6V216zm-218.3 1.6c2.5 0 4.5 2 4.5 4.5s-2 4.5-4.5 4.5-4.5-2-4.5-4.5c-.1-2.5 1.9-4.5 4.5-4.5zm305.9 0c2.5 0 4.5 2 4.5 4.5s-2 4.5-4.5 4.5-4.5-2-4.5-4.5c-.1-2.5 1.9-4.5 4.5-4.5zm-162.5.3c-.7 0-1.3.2-1.8.6-.5.4-.8 1-1.1 1.8-.2.8-.4 1.9-.5 3.1-.1 1.2-.1 2.7-.1 4.3s0 3.1.1 4.3.2 2.3.5 3.1.6 1.5 1.1 1.9 1.1.6 1.8.6c.8 0 1.4-.2 1.8-.6.5-.4.8-1.1 1.1-1.9.3-.8.5-1.9.6-3.1.1-1.2.2-2.7.2-4.3s-.1-3.1-.2-4.3-.3-2.3-.6-3.1c-.3-.8-.6-1.4-1.1-1.8-.4-.4-1.1-.6-1.8-.6zm100.9.1c-.6 0-1.1.2-1.5.5-.4.4-.7.9-.9 1.5-.2.6-.4 1.4-.5 2.3-.1.9-.1 2-.1 3.1h5.5c0-1.1 0-2.2-.1-3.1 0-.9-.1-1.7-.3-2.3-.2-.6-.4-1.1-.7-1.5-.3-.4-.8-.5-1.4-.5zm-72.8.2c-.6 0-1.3.1-2.1.2s-1.4.3-1.9.6v18.2c.5.1 1.2.2 1.9.3.7.1 1.4.1 2.1.1.9 0 1.7-.2 2.3-.7s1.1-1.1 1.5-2 .7-2 .9-3.3c.2-1.3.3-2.8.3-4.4 0-1.7-.1-3.1-.3-4.3-.2-1.2-.5-2.1-1-2.8-.4-.7-.9-1.2-1.6-1.5-.6-.3-1.3-.4-2.1-.4z"/><path fill="#F2F3F4" d="M533.3 0h533.3v332H533.3V0z"/><path fill="#E9399B" d="M628.6 85.1v2.8c4.7 0 7.9.4 9.6 1.3 1.7.9 2.9 2 3.5 3.5.7 1.4 1.1 4.9 1.1 10.4v66.4c0 5.5-.4 9-1.1 10.4-.7 1.4-1.8 2.6-3.5 3.5s-4.9 1.3-9.6 1.3v2.8h52c14.5 0 25.5-3 33.1-9.1 6.2-5 9.3-11.4 9.3-19.1 0-7.3-2.8-13.2-8.5-17.8-3.9-3.2-10.7-6-20.5-8.2 9-2.3 15.3-5.3 18.9-9.1 3.6-3.9 5.4-8.3 5.4-13.2 0-4.7-1.4-9.1-4.2-13.2-2.8-4.2-6.7-7.3-11.6-9.4-4.9-2.1-13.2-3.2-24.9-3.2l-49-.1zm38 5.7c7.3-.1 12.7.7 16 2.2s5.9 3.7 7.6 6.6c1.8 2.9 2.7 6.6 2.7 11.1s-.9 8.3-2.7 11.2c-1.8 2.9-4.4 5.2-7.9 6.8-3.4 1.6-8.6 2.4-15.8 2.4V90.8h.1zm87 30.9l-23 51.4c-2.2 4.9-4 8.2-5.5 9.7-1.5 1.6-3.4 2.5-5.7 2.9v1.8h21.4v-1.8c-3.4-.3-5.5-.6-6.3-1.1-1.5-.9-2.2-2.2-2.2-4 0-1.4.4-3.1 1.3-5.2l2.7-6.3H759l3.4 8c.9 2.1 1.4 3.3 1.4 3.6.2.6.3 1.2.3 1.8 0 1-.3 1.7-1 2.2-1 .7-2.8 1-5.3 1h-1.3v1.8h31.2v-1.8c-2-.2-3.5-.7-4.6-1.7-1.4-1.3-3.2-4.5-5.5-9.5l-23.2-52.8h-.8zm36.2 1.3v1.8h2.1c1.8 0 3.2.3 4.3 1 1.1.6 1.8 1.3 2.1 2.1s.5 2.9.5 6.2v42.4c0 3.2-.2 5.2-.5 6-.4 1.1-1.1 1.8-1.9 2.3-1.1.7-2.6 1-4.5 1h-2.1v1.8h32.5v-1.8c-2.4 0-4.1-.3-5.2-.9-1.1-.6-1.8-1.3-2.2-2.1s-.6-2.9-.6-6.3v-17.6l2.4-2 14.8 18.6c2.9 3.7 4.4 6.2 4.4 7.5 0 .7-.3 1.3-1 1.8-.6.5-2 .8-4.1 1v1.8h33.5v-1.8c-1.9 0-3.6-.5-5.3-1.5-2.3-1.4-5.1-4.1-8.3-8.1L828 147.8l18.9-15.1c4.6-3.7 7.6-5.9 8.8-6.6 1.3-.7 3.1-1.1 5.3-1.2V123h-25v1.8c2.8.1 4.5.3 5.2.7 1.4.7 2 1.6 2 2.9 0 1.6-1.7 3.8-5 6.5l-23.9 19.3v-20.1c0-3.3.2-5.3.6-6.1.5-1 1.1-1.8 1.9-2.2 1.1-.6 2.8-1 5-1V123h-32zm76.6 0v1.8h2.1c1.8 0 3.2.3 4.3 1 1.1.6 1.8 1.3 2.1 2.1s.5 2.9.5 6.2v42.4c0 3.2-.2 5.2-.5 6-.4 1.1-1.1 1.8-1.9 2.3-1.1.7-2.6 1-4.5 1h-2.1v1.8h33.7v-1.8H898c-1.8 0-3.2-.3-4.3-.9-1-.6-1.8-1.4-2.1-2.2s-.5-2.9-.5-6.2v-42.4c0-3.2.2-5.2.5-6 .5-1.1 1.1-1.8 1.9-2.3 1.1-.7 2.6-1 4.5-1h2.1V123h-33.7zm35.7 0v1.8c2.9 0 5 .3 6 .8 1.1.5 1.8 1.3 2.2 2.2s.7 3.1.7 6.6v41.8c0 3.5-.2 5.7-.7 6.6-.4.9-1.2 1.6-2.2 2.2-1 .5-3.1.8-6 .8v1.8h33v-1.8c-2.9 0-5-.3-6-.8-1.1-.5-1.8-1.3-2.3-2.1-.4-.9-.6-3.1-.6-6.6v-18.1h4.2l20.8 29.4h20.3v-1.8c-1.7-.1-3.2-.6-4.5-1.6-.9-.7-2.3-2.5-4.3-5.3L947.1 157c3.9-1 7-2.5 9.2-4.4 3.4-3.1 5.1-7 5.1-11.8 0-3.9-1.1-7.3-3.4-10.2-2.3-2.9-5.2-4.9-8.8-6s-9.3-1.6-17.1-1.6h-30zm24.1 3.5h5.1c5.1 0 8.8 1.2 11.1 3.5s3.5 6 3.5 10.9c0 3.4-.6 6.1-1.9 8.3-1.2 2.1-2.9 3.5-5.1 4.4-2.2.8-5.5 1.2-9.9 1.2h-2.7l-.1-28.3zM666.6 137c7.7-.1 13.5.7 17.4 2.2s6.9 4.2 9.1 8c2.2 3.8 3.3 8.1 3.3 12.8 0 4.2-.9 8-2.7 11.4s-4.4 6-7.9 7.8c-3.4 1.8-7.1 2.6-11.1 2.6-2.7 0-4.8-.7-6.2-2-1.4-1.4-2-3.5-2-6.2l.1-3.8V137zm81.2 6.4l9.6 22.2h-19.5l9.9-22.2zM628.7 199v48h340.5v-48H628.7zm176.3 4.8h9.7v8.7c0 .6 0 1.4-.1 2.2 0 .9-.1 1.7-.2 2.5.4-.3.8-.6 1.3-.8s1.1-.4 1.7-.6c.6-.2 1.2-.3 1.8-.4.6-.1 1.2-.2 1.8-.2 1.8 0 3.3.2 4.5.7s2.3 1.2 3.1 2.2 1.4 2.2 1.8 3.7c.4 1.5.6 3.2.6 5.3 0 1.9-.2 3.7-.7 5.3s-1.2 3-2.1 4.1c-1 1.1-2.2 2-3.6 2.7-1.4.6-3.1 1-5.1 1-1.6 0-3.5-.2-5.5-.5-2.1-.3-4.2-.7-6.4-1.2V206l-2.4-.6v-1.6h-.2zm36.3 0c.5 0 1 .1 1.5.3s.9.5 1.2.8c.4.3.6.7.8 1.2s.3 1 .3 1.5-.1 1-.3 1.5-.5.9-.8 1.2c-.3.4-.7.6-1.2.8s-1 .3-1.5.3-1-.1-1.5-.3-.9-.5-1.2-.8c-.4-.4-.6-.8-.8-1.2-.2-.5-.3-1-.3-1.5s.1-1 .3-1.5.5-.9.8-1.2c.4-.4.8-.6 1.2-.8s.9-.3 1.5-.3zm8.9 0h9.7v33.6l2.6.6v1.7H850V238l2.6-.6v-31.3l-2.4-.6v-1.7zm21.3 0c.5 0 1 .1 1.5.3s.9.5 1.2.8c.4.3.6.7.8 1.2s.3 1 .3 1.5-.1 1-.3 1.5-.5.9-.8 1.2c-.3.4-.7.6-1.2.8s-1 .3-1.5.3-1-.1-1.5-.3-.9-.5-1.2-.8c-.4-.4-.6-.8-.8-1.2-.2-.5-.3-1-.3-1.5s.1-1 .3-1.5.5-.9.8-1.2c.4-.4.8-.6 1.2-.8.5-.2 1-.3 1.5-.3zm-200.7 2.1h16.6v1.8l-4.3.7v28.8l4.3.7v1.9h-16.6v-1.9l4.3-.7v-28.8l-4.3-.7v-1.8zm38.1 9.5c1.3 0 2.5.2 3.4.7 1 .5 1.7 1.3 2.2 2.3.5-.3 1.2-.7 1.8-1 .7-.4 1.4-.7 2.2-1s1.6-.6 2.4-.8c.8-.2 1.6-.3 2.3-.3 1 0 1.8.1 2.6.4s1.5.7 2 1.2c.6.6 1 1.3 1.3 2.2s.5 2 .5 3.2v15.1l2.4.6v1.7h-11.8V238l2.1-.6v-14.1c0-1.4-.3-2.5-.8-3.3s-1.4-1.2-2.5-1.2c-.6 0-1.3.1-2 .3s-1.4.4-2 .8c.1.4.1.7.2 1.2.1.4.1.8.1 1.3v15.1l2.4.6v1.7h-11.8v-1.7l2.1-.6v-14.1c0-1.4-.3-2.5-.8-3.3s-1.4-1.2-2.5-1.2c-.6 0-1.3.1-1.9.3-.6.2-1.3.4-1.9.7v17.6l2.2.6v1.7h-11.8v-1.7l2.3-.6v-19.2l-2.3-.6V216h9.2l.4 2.1c.5-.3 1.1-.6 1.7-.9.6-.3 1.3-.6 2-.9.7-.3 1.4-.5 2.1-.7.7-.2 1.5-.2 2.2-.2zm43.9 0c1.3 0 2.5.2 3.4.7 1 .5 1.7 1.3 2.2 2.3.5-.3 1.2-.7 1.8-1 .7-.4 1.4-.7 2.2-1s1.6-.6 2.4-.8c.8-.2 1.6-.3 2.3-.3 1 0 1.8.1 2.6.4.8.3 1.5.7 2 1.2.6.6 1 1.3 1.3 2.2s.5 2 .5 3.2v15.1l2.4.6v1.7h-11.8V238l2.1-.6v-14.1c0-1.4-.3-2.5-.8-3.3s-1.4-1.2-2.5-1.2c-.6 0-1.3.1-2 .3s-1.4.4-2 .8c.1.4.1.7.2 1.2.1.4.1.8.1 1.3v15.1l2.4.6v1.7h-11.8v-1.7l2.1-.6v-14.1c0-1.4-.3-2.5-.8-3.3s-1.4-1.2-2.5-1.2c-.6 0-1.3.1-1.9.3-.6.2-1.3.4-1.9.7v17.6l2.2.6v1.7h-11.8v-1.7l2.3-.6v-19.2l-2.3-.6V216h9.2l.4 2.1c.5-.3 1.1-.6 1.7-.9.6-.3 1.3-.6 2-.9.7-.3 1.4-.5 2.1-.7.7-.2 1.5-.2 2.2-.2zm37.9 0c3.8 0 6.5 1.1 8.3 3.2 1.8 2.1 2.7 5.2 2.7 9.2 0 2-.2 3.8-.6 5.4-.4 1.5-1.1 2.9-1.9 3.9-.9 1.1-2 1.9-3.5 2.4-1.4.5-3.1.8-5.1.8-1.9 0-3.5-.3-4.8-.8-1.4-.5-2.5-1.3-3.4-2.4-.9-1.1-1.5-2.4-1.9-3.9-.4-1.6-.6-3.4-.6-5.4s.2-3.8.6-5.3c.4-1.5 1.1-2.8 2-3.9s2-1.8 3.4-2.4c1.2-.6 2.9-.8 4.8-.8zm131.4 0c1 0 1.8.1 2.7.4s1.5.7 2.1 1.2c.6.6 1 1.3 1.4 2.2.3.9.5 2 .5 3.2v15.1l2.4.6v1.7h-11.8v-1.7l2.1-.6v-14.1c0-1.4-.3-2.5-.9-3.3-.6-.8-1.4-1.2-2.5-1.2-1.3 0-2.6.3-3.8.9v17.8l2.2.6v1.7h-11.8v-1.7l2.3-.6v-19.2l-2.3-.6V216h9.2l.4 2.1c.5-.3 1.1-.6 1.7-.9.6-.3 1.3-.6 2-.9.7-.3 1.4-.5 2.1-.7.5-.2 1.2-.2 2-.2zm-30.3 0c1.4 0 2.7.2 3.8.5s2.1.9 2.9 1.7c.8.8 1.4 1.9 1.8 3.3.4 1.3.7 3 .7 5.1v2.1h-12.4v.4c0 1.1 0 2.2.1 3.3.1 1 .4 1.9.8 2.8.4.8 1.1 1.4 1.9 1.9.9.5 2 .7 3.5.7 1 0 2-.1 2.9-.2.9-.2 1.8-.3 2.7-.5v1.9c-.4.2-.9.5-1.5.7s-1.2.4-1.9.6c-.7.2-1.4.3-2.2.4-.8.1-1.5.2-2.3.2-2 0-3.8-.3-5.2-.8s-2.6-1.3-3.6-2.4c-.9-1.1-1.6-2.4-2-3.9s-.6-3.3-.6-5.4c0-4.1.9-7.2 2.7-9.3 1.6-2.1 4.3-3.1 7.9-3.1zm-56.6.6h9.7v21.5l2.6.6v1.7H835v-1.7l2.6-.6v-19.2l-2.4-.6V216zm30.3 0h9.7v21.5l2.6.6v1.7h-12.5v-1.7l2.6-.6v-19.2l-2.4-.6V216zm-218.4 1.6c2.5 0 4.5 2 4.5 4.5s-2 4.5-4.5 4.5-4.5-2-4.5-4.5 2-4.5 4.5-4.5zm305.9 0c2.5 0 4.5 2 4.5 4.5s-2 4.5-4.5 4.5-4.5-2-4.5-4.5 2-4.5 4.5-4.5zm-162.4.3c-.7 0-1.3.2-1.8.6-.5.4-.8 1-1.1 1.8-.2.8-.4 1.9-.5 3.1-.1 1.2-.1 2.7-.1 4.3s0 3.1.1 4.3.2 2.3.5 3.1.6 1.5 1.1 1.9 1.1.6 1.8.6c.8 0 1.4-.2 1.8-.6s.8-1.1 1.1-1.9.5-1.9.6-3.1c.1-1.2.2-2.7.2-4.3s-.1-3.1-.2-4.3c-.1-1.2-.3-2.3-.6-3.1s-.6-1.4-1.1-1.8c-.5-.4-1.1-.6-1.8-.6zm100.9.1c-.6 0-1.1.2-1.5.5-.4.4-.7.9-.9 1.5s-.4 1.4-.5 2.3c-.1.9-.1 2-.1 3.1h5.5c0-1.1 0-2.2-.1-3.1 0-.9-.1-1.7-.3-2.3s-.4-1.1-.7-1.5-.8-.5-1.4-.5zm-72.8.2c-.6 0-1.3.1-2.1.2s-1.4.3-1.9.6v18.2c.5.1 1.2.2 1.9.3s1.4.1 2.1.1c.9 0 1.7-.2 2.3-.7s1.1-1.1 1.5-2 .7-2 .9-3.3.3-2.8.3-4.4c0-1.7-.1-3.1-.3-4.3s-.5-2.1-1-2.8c-.4-.7-.9-1.2-1.6-1.5-.6-.3-1.3-.4-2.1-.4z"/></svg>
