<svg xmlns="http://www.w3.org/2000/svg" viewBox="0 0 100 100"><path d="M38.49 4.46h22.67l-4.65 62.9H43.7zm1.25 81.61a9.41 9.41 0 0 1 .9-4.13 9.93 9.93 0 0 1 2.45-3.23 10.93 10.93 0 0 1 3.65-2.08 13.72 13.72 0 0 1 4.5-.73 10.87 10.87 0 0 1 4.25.8 10 10 0 0 1 3.23 2.13 9.48 9.48 0 0 1 2.05 3.05 9 9 0 0 1 .73 3.53 10.13 10.13 0 0 1-.88 4.33 8.78 8.78 0 0 1-2.45 3.15 11.11 11.11 0 0 1-3.78 2 16.49 16.49 0 0 1-4.85.68 9.8 9.8 0 0 1-3.63-.7 10.18 10.18 0 0 1-3.15-2 9.54 9.54 0 0 1-2.2-3 8.76 8.76 0 0 1-.82-3.79z"/></svg>
