<svg xmlns="http://www.w3.org/2000/svg" width="170" height="80"><path fill="#E9399B" d="M42.5 27.8c-1.9-1.6-5.3-2.9-10.1-4.1 4.5-1.1 7.6-2.6 9.3-4.5 1.8-1.9 2.6-4.1 2.6-6.5 0-2.3-.7-4.5-2.1-6.5-1.4-2.1-3.3-3.6-5.7-4.6C34.2.5 30.1 0 24.3 0H0v1.4c2.3 0 3.9.2 4.7.6s1.4 1 1.8 1.7c.3.7.5 2.4.5 5.2v32.8c0 2.7-.2 4.5-.5 5.2-.3.7-.9 1.3-1.8 1.7-.8.4-2.4.6-4.7.6v1.4h25.7c7.2 0 12.6-1.5 16.4-4.5 3.1-2.5 4.6-5.6 4.6-9.4 0-3.7-1.4-6.6-4.2-8.9zm-23.7-25c3.6 0 6.3.3 7.9 1.1 1.6.7 2.9 1.8 3.8 3.3.9 1.4 1.3 3.2 1.3 5.5s-.4 4.1-1.3 5.5-2.2 2.6-3.9 3.4c-1.7.8-4.3 1.2-7.8 1.2v-20zm13.4 39.9c-.9 1.7-2.2 2.9-3.9 3.8-1.7.9-3.5 1.3-5.5 1.3-1.3 0-2.4-.3-3.1-1-.7-.7-1-1.7-1-3.1v-18c3.8 0 6.7.3 8.6 1.1 1.9.7 3.4 2.1 4.5 4s1.6 4 1.6 6.3c.2 2-.3 3.9-1.2 5.6zm41.5 1.5L62.2 18.1h-.4L50.4 43.5c-1.1 2.4-2 4-2.7 4.8-.7.8-1.7 1.2-2.8 1.4v.9h10.6v-.9c-1.7-.1-2.7-.3-3.1-.6-.7-.4-1.1-1.1-1.1-2 0-.7.2-1.5.7-2.6l1.3-3.1h11.3l1.7 4c.4 1 .7 1.6.7 1.8.1.3.1.6.1.9 0 .5-.2.8-.5 1.1-.5.3-1.4.5-2.6.5h-.6v.9h15.4v-.9c-1-.1-1.7-.4-2.3-.8-.8-.6-1.7-2.2-2.8-4.7zm-19.6-4.4l4.9-11 4.7 11h-9.6zm55.7 5.2L98.6 31l9.3-7.5c2.3-1.8 3.7-2.9 4.4-3.2.6-.3 1.5-.5 2.6-.6v-.9h-12.4v.9c1.4 0 2.2.2 2.6.3.7.3 1 .8 1 1.4 0 .8-.8 1.9-2.5 3.2l-11.8 9.6v-9.9c0-1.6.1-2.6.3-3 .2-.5.6-.9 1-1.1.6-.3 1.4-.5 2.5-.5v-.9H79.7v.9h1.1c.9 0 1.6.2 2.1.5s.9.6 1.1 1.1.3 1.4.3 3.1v21c0 1.6-.1 2.6-.3 3-.2.5-.5.9-.9 1.1-.6.3-1.3.5-2.2.5h-1.1v.9h16.1V50c-1.2 0-2-.1-2.6-.4-.5-.3-.9-.6-1.1-1.1-.2-.4-.3-1.4-.3-3.1v-8.7l1.2-1 7.3 9.2c1.4 1.8 2.2 3.1 2.2 3.7 0 .3-.2.6-.5.9-.3.2-1 .4-2 .5v.9h16.6V50c-.9 0-1.8-.3-2.6-.8-1.3-.9-2.7-2.3-4.3-4.2zm7.8-25.4h1.1c.9 0 1.6.2 2.1.5s.9.6 1.1 1.1.3 1.4.3 3.1v21c0 1.6-.1 2.6-.3 3-.2.5-.5.9-.9 1.1-.6.3-1.3.5-2.2.5h-1.1v.9h16.7v-.9h-1.1c-.9 0-1.6-.1-2.1-.4-.5-.3-.9-.7-1.1-1.1-.2-.4-.3-1.4-.3-3.1v-21c0-1.6.1-2.6.3-3 .2-.5.6-.9 1-1.1.6-.3 1.3-.5 2.2-.5h1.1v-.9h-16.7v.8zm49.7 29.3c-.4-.3-1.1-1.2-2.1-2.6l-7.7-10.8c1.9-.5 3.5-1.2 4.5-2.2 1.7-1.5 2.5-3.5 2.5-5.8 0-1.9-.6-3.6-1.7-5s-2.6-2.4-4.4-3c-1.8-.5-4.6-.8-8.5-.8h-14.8v.9c1.5 0 2.5.1 3 .4.5.3.9.6 1.1 1.1.2.4.3 1.5.3 3.2V45c0 1.7-.1 2.8-.3 3.2-.2.4-.6.8-1.1 1.1-.5.3-1.5.4-3 .4v.9h16.3v-.9c-1.5 0-2.5-.1-3-.4-.5-.3-.9-.6-1.1-1.1-.2-.5-.3-1.5-.3-3.3V36h2.1l10.3 14.5h10v-.9c-.8.1-1.5-.2-2.1-.7zm-11.4-17.2c-.6 1-1.5 1.8-2.5 2.2-1.1.4-2.7.6-4.9.6h-1.3v-14h2.5c2.5 0 4.3.6 5.5 1.7 1.1 1.2 1.7 3 1.7 5.4-.1 1.7-.4 3-1 4.1z"/><path fill="#86888A" d="M81 65.6c-.2-.2-.5-.3-.8-.3-.4 0-.8.2-1.1.5-.3.3-.5 1-.6 1.9s-.1 2.3-.1 3.9c0 .9.1 1.7.2 2.5.1.6.3 1 .6 1.3.3.3.6.5 1 .5s.7-.1.9-.3c.3-.3.5-.7.6-1.2.2-.8.2-2.4.2-4.8 0-1.4-.1-2.4-.2-2.9-.2-.5-.4-.9-.7-1.1zm13.3.2c-.7 0-1.4.4-2.1 1.2v5.2c0 1.1 0 1.7.1 2 .1.5.3.9.6 1.2.3.3.7.5 1.2.5.4 0 .8-.1 1.1-.4.3-.2.6-.7.8-1.4.2-.7.3-2 .3-3.9 0-1.8-.2-3-.7-3.7-.3-.4-.8-.7-1.3-.7zm36.4-.3c-.2-.2-.4-.2-.7-.2-.4 0-.8.2-1.1.6-.5.7-.7 1.8-.7 3v.4h3.4c0-1.3-.1-2.3-.2-2.8-.2-.4-.4-.8-.7-1zM.1 56.3V80h168.3V56.3H.1zm118.6 3.4c.4-.4.8-.6 1.4-.6.5 0 1 .2 1.4.6.4.4.6.8.6 1.4s-.2 1-.6 1.4c-.4.4-.8.6-1.4.6-.5 0-1-.2-1.4-.6-.4-.4-.6-.8-.6-1.4s.3-1 .6-1.4zm-14.9 0c.4-.4.8-.6 1.4-.6.5 0 1 .2 1.4.6.4.4.6.8.6 1.4s-.2 1-.6 1.4c-.4.4-.8.6-1.4.6-.5 0-1-.2-1.4-.6-.4-.4-.6-.8-.6-1.4s.2-1 .6-1.4zM9.2 70C8 70 7 69 7 67.8s1-2.2 2.2-2.2c1.2 0 2.2 1 2.2 2.2s-1 2.2-2.2 2.2zm20.2-10h-.6c-.5 0-.9.1-1.2.3-.2.1-.4.3-.5.6-.1.1-.1.7-.1 1.5v11.1c0 .9 0 1.4.1 1.6s.3.4.6.6.7.2 1.1.2h.6v.5h-8.9V76h.6c.5 0 .9-.1 1.2-.3.2-.1.4-.3.5-.6.1-.2.1-.7.1-1.6V62.4c0-.9 0-1.4-.1-1.6-.1-.2-.3-.4-.6-.6s-.7-.2-1.1-.2h-.6v-.5h8.9v.5zM51 76.4h-6V76c.5 0 .8-.2 1-.5.1-.2.2-.7.2-1.5v-5c0-1 0-1.7-.1-2-.1-.3-.2-.5-.4-.6-.2-.1-.4-.2-.6-.2-.4 0-.7.1-1.1.4-.4.3-.7.7-1.1 1.2v6.3c0 .8.1 1.4.2 1.6.2.3.6.5 1.1.5v.4h-6V76c.3 0 .6-.1.8-.2.2-.1.3-.3.4-.5.1-.2.1-.6.1-1.3v-5c0-1.1 0-1.7-.1-2-.1-.3-.2-.5-.4-.6-.2-.1-.4-.2-.6-.2-.3 0-.6.1-.9.3-.4.3-.8.7-1.2 1.3v6.3c0 .8.1 1.4.2 1.6.2.3.5.4 1 .5v.4h-6V76c.5-.1.8-.2 1-.5.1-.2.2-.7.2-1.6v-6.6c0-.9-.1-1.4-.2-1.6-.2-.2-.5-.4-1-.4v-.5H36v1.5c.6-.7 1.2-1.2 1.8-1.5.5-.3 1.1-.4 1.8-.4s1.4.2 1.9.5.9.9 1.2 1.6c.7-.8 1.3-1.3 1.9-1.6.6-.3 1.2-.5 1.9-.5.8 0 1.4.2 1.9.6.5.4.8.8 1 1.4.2.6.3 1.5.3 2.7v4.8c0 .9.1 1.5.2 1.7.2.2.5.4 1 .4v.4zm21.6 0h-6V76c.5 0 .8-.2 1-.5.1-.2.2-.7.2-1.5v-5c0-1 0-1.7-.1-2-.1-.3-.2-.5-.4-.6-.2-.1-.4-.2-.6-.2-.4 0-.7.1-1.1.4-.4.3-.7.7-1.1 1.2v6.3c0 .8.1 1.4.2 1.6.2.3.6.5 1.1.5v.4h-6V76c.3 0 .6-.1.8-.2.2-.1.3-.3.4-.5v-6.4c0-1.1 0-1.7-.1-2-.1-.3-.2-.5-.4-.6-.2-.1-.4-.2-.6-.2-.3 0-.6.1-.9.3-.4.3-.8.7-1.2 1.3V74c0 .8.1 1.4.2 1.6.2.3.5.4 1 .5v.4h-6V76c.5-.1.8-.2 1-.5.1-.2.2-.7.2-1.6v-6.6c0-.9-.1-1.4-.2-1.6-.2-.2-.5-.4-1-.4v-.5h4.8v1.5c.6-.7 1.2-1.2 1.8-1.5.5-.3 1.1-.4 1.8-.4s1.4.2 1.9.5.9.9 1.2 1.6c.7-.8 1.3-1.3 1.9-1.6.6-.3 1.2-.5 1.9-.5.8 0 1.4.2 1.9.6.5.4.8.8 1 1.4.2.6.3 1.5.3 2.7v4.8c0 .9.1 1.5.2 1.7.2.2.5.4 1 .4v.4zm11.7-1.6c-1 1.3-2.4 2-4.2 2-1.8 0-3.1-.6-4.1-1.8-.9-1.2-1.4-2.7-1.4-4.3 0-1.7.5-3.1 1.5-4.4 1-1.2 2.3-1.9 4-1.9 1 0 2 .3 2.8.8.9.5 1.5 1.3 2 2.2s.7 2 .7 3.2c0 1.7-.5 3.1-1.3 4.2zm14.9-1.2c-.5 1-1.2 1.8-2 2.4-.8.5-1.8.8-2.9.8-.6 0-1.2-.1-1.7-.3-.5-.2-1-.5-1.4-1l-1.9 1.3h-.4V61.9c0-.7 0-1.1-.1-1.2-.1-.2-.2-.4-.4-.5-.2-.1-.5-.2-.9-.2v-.5h4.8v6.4c1-1 2.1-1.5 3.2-1.5.8 0 1.6.2 2.3.7.7.5 1.3 1.1 1.7 2s.6 1.9.6 3c-.1 1.3-.4 2.5-.9 3.5zm9.1 2.8H102V76c.5 0 .9-.2 1.1-.4.2-.2.2-.7.2-1.5v-6.8c0-.8-.1-1.4-.3-1.6s-.6-.4-1.1-.4v-.5h4.9V74c0 .8.1 1.4.3 1.6.2.2.6.4 1.1.4v.4zm7.5 0h-6.3V76c.5 0 .9-.2 1.1-.4.2-.2.2-.7.2-1.5V61.9c0-.8-.1-1.3-.3-1.6-.2-.2-.6-.4-1.1-.4v-.5h4.9V74c0 .8.1 1.4.3 1.6.2.2.6.4 1.1.4v.4zm7.5 0H117V76c.5 0 .9-.2 1.1-.4.2-.2.2-.7.2-1.5v-6.8c0-.8-.1-1.4-.3-1.6s-.6-.4-1.1-.4v-.5h4.9V74c0 .8.1 1.4.3 1.6.2.2.6.4 1.1.4v.4zm6.2-2.5c.6.7 1.3 1 2.1 1 .5 0 1-.1 1.4-.4.4-.3.8-.8 1.3-1.5l.4.3c-.6 1.3-1.3 2.2-2.1 2.7s-1.7.8-2.7.8c-1.7 0-3-.7-3.9-2-.7-1.1-1.1-2.4-1.1-4 0-1.9.5-3.5 1.6-4.6 1.1-1.2 2.3-1.7 3.7-1.7 1.2 0 2.2.5 3.1 1.5.9 1 1.3 2.4 1.4 4.3h-6.4c0 1.4.4 2.7 1.2 3.6zm19.6 2.5h-5.9V76c.4-.1.8-.2.9-.5.1-.2.2-.7.2-1.5v-5.2c0-1 0-1.6-.1-1.8-.1-.2-.2-.4-.4-.6s-.4-.2-.6-.2c-.7 0-1.4.5-2 1.5V74c0 .9.1 1.4.2 1.7.2.2.5.4.9.4v.4h-5.9V76c.5-.1.8-.2 1-.5.1-.2.2-.7.2-1.6v-6.6c0-.9-.1-1.4-.2-1.6s-.5-.4-1-.4v-.5h4.8v1.5c.6-.6 1.2-1.1 1.7-1.4.5-.3 1.1-.4 1.8-.4.8 0 1.4.2 1.9.6s.8.9 1 1.6c.1.5.2 1.4.2 2.7v4.5c0 .9.1 1.5.2 1.7.2.2.5.4 1 .4v.4zm11.3-6.4c-1.2 0-2.2-1-2.2-2.2s1-2.2 2.2-2.2c1.2 0 2.2 1 2.2 2.2s-1 2.2-2.2 2.2z"/></svg>